<svg width="620" height="160" viewBox="0 0 620 160" fill="none" xmlns="http://www.w3.org/2000/svg" role="img" aria-labelledby="title desc">
  <title id="title">ArticleOS logo lockup</title>
  <desc id="desc">ArticleOS mark with wordmark.</desc>
  <g transform="translate(42 25) scale(0.86)" stroke="#7C3AED" stroke-width="7.5" stroke-linecap="round" stroke-linejoin="round">
    <path d="M64 24v80"/>
    <path d="M55 33c-13-8-24-8-34-2"/><path d="M55 46c-13-8-24-8-34-2"/><path d="M55 59c-13-8-24-8-34-2"/><path d="M55 72c-13-8-24-8-34-2"/><path d="M55 85c-13-8-24-8-34-2"/>
    <path d="M73 33c13-8 24-8 34-2"/><path d="M73 46c13-8 24-8 34-2"/><path d="M73 59c13-8 24-8 34-2"/><path d="M73 72c13-8 24-8 34-2"/><path d="M73 85c13-8 24-8 34-2"/>
  </g>
  <text x="175" y="101" fill="#111827" font-size="58" font-weight="700" letter-spacing="1.5" font-family="Orbitron, Audiowide, Rajdhani, Saira Condensed, Space Grotesk, system-ui, sans-serif">article OS</text>
</svg>
