<svg width="128" height="128" viewBox="0 0 128 128" fill="none" xmlns="http://www.w3.org/2000/svg" role="img" aria-labelledby="title desc">
  <title id="title">ArticleOS mark</title>
  <desc id="desc">A stylized open medical journal and spine mark.</desc>
  <rect width="128" height="128" rx="28" fill="none"/>
  <g stroke="#7C3AED" stroke-width="7.5" stroke-linecap="round" stroke-linejoin="round">
    <path d="M64 24v80"/>
    <path d="M55 33c-13-8-24-8-34-2"/>
    <path d="M55 46c-13-8-24-8-34-2"/>
    <path d="M55 59c-13-8-24-8-34-2"/>
    <path d="M55 72c-13-8-24-8-34-2"/>
    <path d="M55 85c-13-8-24-8-34-2"/>
    <path d="M73 33c13-8 24-8 34-2"/>
    <path d="M73 46c13-8 24-8 34-2"/>
    <path d="M73 59c13-8 24-8 34-2"/>
    <path d="M73 72c13-8 24-8 34-2"/>
    <path d="M73 85c13-8 24-8 34-2"/>
  </g>
</svg>
